<svg width="60" height="60" viewBox="0 0 60 60" fill="none" xmlns="http://www.w3.org/2000/svg">
<g clip-path="url(#clip0_2_41)">
<path d="M55.1795 9.92421C48.6541 3.40049 38.0384 3.40049 31.5147 9.92421L29.9995 11.4386L28.4851 9.92421C21.9614 3.39961 11.3449 3.39961 4.82118 9.92421C-1.57008 16.3155 -1.61158 26.4463 4.72493 33.4901C10.5043 39.9123 27.5491 53.7871 28.2723 54.3743C28.7633 54.7734 29.354 54.9677 29.9412 54.9677C29.9606 54.9677 29.9801 54.9677 29.9986 54.9668C30.6061 54.9951 31.218 54.7867 31.7249 54.3743C32.4481 53.7871 49.4947 39.9123 55.2758 33.4892C61.6114 26.4463 61.5699 16.3155 55.1795 9.92421ZM51.3375 29.9457C46.8315 34.9515 34.4455 45.2757 29.9986 48.9394C25.5517 45.2766 13.1683 34.9533 8.66318 29.9466C4.24281 25.0335 4.20131 18.0365 8.56693 13.6708C10.7965 11.4421 13.7246 10.3269 16.6527 10.3269C19.5808 10.3269 22.5089 11.4412 24.7385 13.6708L28.0692 17.0016C28.4657 17.3981 28.9655 17.6347 29.49 17.7177C30.3412 17.9005 31.2648 17.663 31.9271 17.0025L35.2596 13.6708C39.7197 9.2125 46.9746 9.21338 51.432 13.6708C55.7976 18.0365 55.7561 25.0335 51.3375 29.9457Z" fill="black"/>
</g>
<defs>
<clipPath id="clip0_2_41">
<rect width="60" height="60" fill="white"/>
</clipPath>
</defs>
</svg>
