<svg width="60" height="60" viewBox="0 0 60 60" fill="none" xmlns="http://www.w3.org/2000/svg">
<path d="M58.3887 26.0971C58.3868 26.0957 58.3855 26.0939 58.3841 26.0925L33.9064 1.61819C32.863 0.574493 31.4759 0 30.0003 0C28.5248 0 27.1377 0.574493 26.0939 1.61819L1.62895 26.0802C1.62071 26.0884 1.61201 26.0971 1.60423 26.1053C-0.538323 28.26 -0.53466 31.756 1.61476 33.9052C2.59676 34.8875 3.89328 35.4561 5.27998 35.5161C5.33675 35.5215 5.39352 35.5243 5.45075 35.5243H6.42588V53.5355C6.42588 57.1001 9.32657 60 12.8915 60H22.468C23.439 60 24.226 59.2126 24.226 58.2422V44.1211C24.226 42.4947 25.5495 41.1717 27.1761 41.1717H32.8246C34.4512 41.1717 35.7742 42.4947 35.7742 44.1211V58.2422C35.7742 59.2126 36.5612 60 37.5322 60H47.1087C50.6741 60 53.5744 57.1001 53.5744 53.5355V35.5243H54.479C55.954 35.5243 57.3412 34.9498 58.3855 33.9056C60.5372 31.7532 60.5381 28.2509 58.3887 26.0971ZM55.8991 31.42C55.5196 31.7995 55.0151 32.0087 54.479 32.0087H51.8164C50.8453 32.0087 50.0584 32.7956 50.0584 33.7665V53.5355C50.0584 55.1614 48.7353 56.4844 47.1087 56.4844H39.2902V44.1211C39.2902 40.5565 36.39 37.6561 32.8246 37.6561H27.1761C23.6107 37.6561 20.71 40.5565 20.71 44.1211V56.4844H12.8915C11.2654 56.4844 9.94186 55.1614 9.94186 53.5355V33.7665C9.94186 32.7956 9.15489 32.0087 8.18387 32.0087H5.56703C5.53956 32.0068 5.51255 32.0055 5.48462 32.005C4.96089 31.9958 4.46966 31.788 4.10158 31.4195C3.31873 30.6367 3.31873 29.3628 4.10158 28.5796C4.10204 28.5796 4.10204 28.5791 4.1025 28.5786L4.10387 28.5773L28.5807 4.10385C28.9597 3.72437 29.4638 3.51562 30.0003 3.51562C30.5364 3.51562 31.0405 3.72437 31.42 4.10385L55.8913 28.5722C55.895 28.5759 55.8991 28.5796 55.9028 28.5832C56.6815 29.3674 56.6801 30.6386 55.8991 31.42Z" fill="black"/>
</svg>
