<svg width="60" height="60" viewBox="0 0 60 60" fill="none" xmlns="http://www.w3.org/2000/svg">
<path d="M45 5C50.515 5 55 9.485 55 15V45C55 50.515 50.515 55 45 55H15C9.485 55 5 50.515 5 45V15C5 9.485 9.485 5 15 5H45ZM45 0H15C6.715 0 0 6.715 0 15V45C0 53.285 6.715 60 15 60H45C53.285 60 60 53.285 60 45V15C60 6.715 53.285 0 45 0Z" fill="black"/>
<path d="M42.5 32.5H17.5C16.12 32.5 15 31.38 15 30C15 28.62 16.12 27.5 17.5 27.5H42.5C43.8825 27.5 45 28.62 45 30C45 31.38 43.8825 32.5 42.5 32.5Z" fill="black"/>
<path d="M42.5 20H17.5C16.12 20 15 18.88 15 17.5C15 16.12 16.12 15 17.5 15H42.5C43.8825 15 45 16.12 45 17.5C45 18.88 43.8825 20 42.5 20Z" fill="black"/>
<path d="M42.5 45H17.5C16.12 45 15 43.8825 15 42.5C15 41.1175 16.12 40 17.5 40H42.5C43.8825 40 45 41.1175 45 42.5C45 43.8825 43.8825 45 42.5 45Z" fill="black"/>
</svg>
