<svg width="60" height="60" viewBox="0 0 60 60" fill="none" xmlns="http://www.w3.org/2000/svg">
<g clip-path="url(#clip0_2_223)">
<path d="M59.9847 29.0211C59.4814 13.2596 46.7408 0.519326 30.9796 0.0159848C22.4035 -0.256115 14.3799 3.00823 8.45014 9.13047C2.74954 15.016 -0.245661 22.775 0.0163292 30.9793C0.51925 46.7404 13.2599 59.4811 29.021 59.984C29.3491 59.9945 29.6743 59.9996 30.0003 59.9996C38.1945 59.9996 45.8478 56.7571 51.5505 50.8695C57.2511 44.9844 60.2467 37.2249 59.9847 29.0211ZM47.0124 46.4742C42.5106 51.1222 36.4688 53.6819 30.0003 53.6819C29.7417 53.6819 29.4831 53.6777 29.2224 53.6697C16.7833 53.2725 6.72825 43.2174 6.33063 30.7779C6.12382 24.2989 8.48805 18.1721 12.9882 13.5262C17.4901 8.87817 23.5319 6.3185 30.0003 6.3185C30.2589 6.3185 30.5176 6.32271 30.7783 6.33071C43.2174 6.72791 53.2724 16.7829 53.67 29.2224C53.8768 35.7014 51.5122 41.8283 47.0124 46.4742Z" fill="#1D1D1B"/>
<path d="M39.84 28.257L26.5366 18.7184C25.1175 17.7008 23.1421 18.715 23.1421 20.4614V39.5391C23.1421 41.2854 25.1175 42.2996 26.5366 41.282L39.8396 31.7429C41.0333 30.8875 41.0333 29.1129 39.84 28.257Z" fill="#1D1D1B"/>
</g>
<defs>
<clipPath id="clip0_2_223">
<rect width="60" height="60" fill="white"/>
</clipPath>
</defs>
</svg>
