<svg width="60" height="60" viewBox="0 0 60 60" fill="none" xmlns="http://www.w3.org/2000/svg">
<path d="M58.3883 26.0971C58.3869 26.0957 58.3855 26.0944 58.3842 26.093L33.9064 1.61865C32.8631 0.574951 31.4759 0 30.0004 0C28.5249 0 27.1377 0.574493 26.0939 1.61819L1.62895 26.0802C1.62071 26.0884 1.61247 26.0971 1.60423 26.1053C-0.538323 28.26 -0.534661 31.756 1.61476 33.9052C2.59676 34.8875 3.89374 35.4565 5.28045 35.5161C5.33676 35.5215 5.39353 35.5243 5.45075 35.5243H6.42635V53.5359C6.42635 57.1001 9.32657 60 12.892 60H22.4685C23.439 60 24.2265 59.2131 24.2265 58.2422V44.1211C24.2265 42.4947 25.5495 41.1717 27.1761 41.1717H32.8246C34.4512 41.1717 35.7743 42.4947 35.7743 44.1211V58.2422C35.7743 59.2131 36.5613 60 37.5323 60H47.1087C50.6742 60 53.5744 57.1001 53.5744 53.5359V35.5243H54.479C55.9541 35.5243 57.3413 34.9498 58.3855 33.9061C60.5372 31.7532 60.5382 28.2513 58.3883 26.0971Z" fill="black"/>
</svg>
